<svg viewBox="0 0 400 384" fill="none" xmlns="http://www.w3.org/2000/svg">
<path d="M356.192 383.07L400.004 383.599V261.55L381.695 250.679L325.121 349.642L317.988 381.526L356.192 383.07Z" fill="#104E51"/>
<path d="M258.219 74.9628L253.748 76.7105L258.219 77.4827L257.243 82.5426L253.748 85.6517L257.243 89.7363L247.327 91.301L248.688 94.2069L247.327 97.5192L241.007 94.9791L242.673 101.604L239.361 104.449L216.032 106.847L209.814 102.234L196.402 97.9053L187.461 88.6186L189.391 83.9041L196.788 82.3597L211.359 89.7363H227.819L238.203 82.3597L244.807 69.1307L253.748 64.8633V69.72L262.69 68.9275L263.726 73.012L258.219 74.9628Z" fill="#FFCC29"/>
<path d="M252.77 122.007H263.723L262.037 125.441L249.864 127.006L251.409 131.395L259.761 130.359L261.265 137.105H280.183V140.865H261L272.665 148.505L208.125 145.132L209.69 139.706L236.29 140.865L234.034 135.805L216.152 131.659L219.728 124.141H231.189L252.77 122.007Z" fill="#FFEBAB"/>
<path d="M342.398 100.041L349.916 101.606L348.352 105.995H338.76L342.134 107.824V110.405L337.216 107.824L318.297 111.441L326.852 102.236L296.777 95.3673L286.921 87.8689V83.4592L275.277 80.5939L271.437 61.9392L272.412 58.3018L268.145 51.8397L272.412 50.8643L278.447 57.2654L296.513 66.6131L299.622 64.8655L322.178 69.966L355.363 93.5588L356.663 98.2326L341.625 96.1599L342.398 100.041Z" fill="#FF99C3"/>
<path d="M275.715 44.5622L265.249 41.2296L268.135 37.0637L257.832 24.3631L270.329 22.5342L273.967 25.9075L268.135 31.3535L272.138 35.6209L275.715 33.2231L307.009 24.3631L311.276 26.4358L288.476 35.6209L286.911 41.2092L293.394 38.4252L336.434 24.3631L337.714 28.5086L318.023 33.2231L313.349 46.6553L294.186 48.1997L275.715 44.5622Z" fill="#FFCC29"/>
<path d="M179.355 38.4271H187.646L191.162 40.7843L200.693 32.3917L222.639 30.827V16.6633L236.254 14.8953L246.943 24.3446L256.474 14.8953L244.423 1.09733L227.821 0V2.07275L221.481 6.34016L230.422 8.55516L217.6 10.6279L187.646 27.1286L179.355 38.4271Z" fill="#64097E"/>
<path d="M95.7637 79.3112L92.5124 84.2289L71.0127 93.6985L57.5195 110.138L66.0747 87.8664L123.096 56.7549L126.855 44.3184L138.661 30.8252L141.242 35.2349L134.516 50.5366L138.661 53.9099L112.732 77.2385L95.7637 79.3112Z" fill="#48D5F6"/>
<path d="M126.874 44.3203L123.115 56.7568L66.0938 87.8683L69.3451 80.0854L117.933 50.8027L125.452 40.1748L138.681 29.0186V30.8271L126.874 44.3203Z" fill="#FFCC29"/>
<path d="M108.012 151.779L68.1628 146.435L56.3969 144.057L52.6172 136.335L57.7991 134.771L142.822 145.134L108.012 151.779Z" fill="#FFEBAB"/>
<path d="M134.525 134.767V131.658L105.222 125.948L108.86 115.584L136.334 108.594L141.252 114.548L160.821 112.617V116.621L196.789 122.453L200.487 120.766L196.687 115.32L219.731 124.139L216.155 131.658L234.037 135.804L236.293 140.864L209.693 139.705L208.128 145.131L272.668 148.504L276.305 153.442L142.816 145.131L57.793 134.767L79.821 128.549L134.525 134.767Z" fill="#8AAA07"/>
<path d="M208.385 161.735H260.651L246.731 169.111L230.149 168.603L161.687 166.429L153.701 160.942L101.598 164.315L96.9853 165.25L96.6602 164.051L97.9607 153.688L107.999 151.777L131.917 154.988L208.385 161.735Z" fill="#042123"/>
<path d="M294.188 161.733L324.243 170.532H292.115L246.738 169.11L260.658 161.733H294.188Z" fill="#543E06"/>
<path d="M312.331 216.947L304.284 226.782L342.488 234.179L355.087 223.937L364.414 240.275L373.762 235.073L380.753 201.909L383.333 190.245L377.074 173.643L336.676 187.908L332.023 178.845L300.667 198.922L300.586 204.632L305.585 200.852L312.331 216.947Z" fill="#36D8B9"/>
<path d="M48.2053 153.689L46.6609 169.499L103.946 192.055L97.9716 209.43L80.089 206.951L30.0586 166.39V157.062L43.7956 146.963H57.7968L63.7712 154.726L48.2053 153.689Z" fill="#5B1A3E"/>
<path d="M119.227 165.088L161.698 166.429L176.776 176.752L201.649 178.825L207.095 203.596L156.292 233.001L141.255 226.783L129.347 223.673L130.627 216.927H124.144L130.119 208.392L124.144 201.117L107.562 192.054H103.945L111.444 168.603L119.227 165.088Z" fill="#330E24"/>
<path d="M51.0742 268.765L90.4564 264.884L100.475 262.791L141.279 254.256L172.371 244.929L136.341 246.737L132.785 243.242L95.3944 252.712L51.0742 268.765Z" fill="#FFCC29"/>
<path d="M359.507 346.272L362.352 341.09L368.835 349.645H372.98L363.124 333.836L365.99 331.763L377.39 349.645H379.727L373.508 335.136L375.053 311.279L377.634 311.909L376.353 325.931L399.946 371.938H393.199L382.836 362.61L384.136 368.564L378.162 364.419L377.126 368.564L372.472 365.963L355.098 353.791L359.507 346.272Z" fill="#021011"/>
<path d="M249.609 303.496L301.956 342.919L308.175 329.426L340.058 361.045L343.696 370.129L357.941 383.073L372.45 365.963L347.069 360.537L342.395 355.599L347.069 354.035L346.277 350.682L335.405 343.691L337.721 342.37L344.732 343.691L343.696 340.582L326.85 337.473L324.249 330.726L329.959 328.918L348.349 335.136L320.367 316.481L303.013 322.699L279.461 304.756L277.591 308.698L249.609 303.496Z" fill="#104E51"/>
<path d="M161.465 285.123L210.703 292.357L229.642 284.595L257.624 292.357L303.001 265.919L285.83 264.091L256.852 280.693L241.57 278.62L217.185 270.065L265.224 239.258L263.578 236.759L280.445 219.791L283.025 198.921L261.79 215.117L259.961 227.553L216.149 246.736L165.61 274.983L161.465 285.123Z" fill="#916D06"/>
<path d="M51.0742 268.767L52.6186 290.551L69.729 296.506L130.387 287.178L134.777 281.224L161.479 285.126L165.624 274.986L126.75 276.042L75.175 287.95L72.8381 272.669L95.3944 271.104L96.9388 268.584L100.475 262.793L90.4564 264.886L51.0742 268.767Z" fill="#628400"/>
<path d="M343.69 370.105L318.553 375.308H311.034L284.068 358.197L268.523 356.633L229.648 316.722L242.105 308.472L298.334 358.461L343.69 370.105Z" fill="#CC9E09"/>
<path d="M163.613 69.5393L167.962 71.2666L172.494 57.2654L191.169 40.785L187.653 38.4277H179.362L165.503 57.2654L163.613 69.5393Z" fill="#8D64CE"/>
<path d="M200.097 44.5658L202.028 48.2033L209.424 45.6225L212.208 49.1178L199.305 53.9135L191.156 66.2281L186.868 63.0986L187.64 55.9253H182.987L174.228 71.2677H167.949L172.481 57.2665L191.156 40.7861L196.785 44.5658H200.097Z" fill="#FF99C3"/>
<path d="M248.681 46.005L246.934 48.1997L225.251 40.1729L223.991 42.8959L215.822 41.9205L216.798 45.6189L224.377 46.1879L223.605 48.1997L212.205 49.1142L209.421 45.6189L202.024 48.1997L200.094 44.5622H196.781L191.152 40.7825L200.663 32.3899L222.63 30.8252L225.251 34.1375L231.957 35.621L249.86 44.5622L248.681 46.005Z" fill="#D4C1EE"/>
<path d="M363.641 107.822L362.076 114.548L369.859 126.212L362.076 124.14L356.651 109.366V98.2303L355.35 93.5565L322.166 69.9638L299.609 64.8632L304.344 58.584L341.349 68.9274L362.605 84.6559L393.96 134.768L385.669 141.778L363.641 107.822Z" fill="#FF5699"/>
<path d="M299.608 64.8639L296.499 66.6115L278.433 57.2638L272.398 50.8626L268.13 51.8381L272.398 58.3002L271.422 61.9376L265.997 54.744L266.952 64.8639H262.684V68.9281L253.743 69.7206V64.8639V61.9376L251.406 56.6948V51.8381L256.466 53.9108L265.245 41.2305L275.71 44.5631L285.424 58.3002L299.608 64.8639Z" fill="#6D5007"/>
<path d="M285.436 58.3025L275.723 44.5654L286.92 49.1173L299.62 57.2661L304.355 58.587L299.62 64.8662L285.436 58.3025Z" fill="#916D06"/>
<path d="M251.405 51.8393L248.682 46.0072L249.861 44.5644L231.958 35.6231L227.812 30.8273L233.909 24.3652L239.944 34.1397L246.345 33.9568L253.742 42.6948L256.465 41.9226L248.499 30.8273L251.405 29.0188L261.911 40.175L265.244 41.2317L256.465 53.9121L251.405 51.8393Z" fill="#FFEBAB"/>
<path d="M187.46 88.6182L196.401 97.9049L209.813 102.233L216.031 106.846L239.36 104.448L240.132 107.029L222.636 111.703L212.333 112.617L220.888 120.766L219.73 124.139L196.686 115.32L183.965 97.1327L187.46 88.6182Z" fill="#0B3A3A"/>
<path d="M177.159 105.489L165.82 91.7314L169.763 87.017L174.823 86.6309L179.09 91.1015L180.065 89.1507L186.284 87.4031L187.462 88.6223L183.967 97.1368L196.688 115.324L194.656 114.552L177.159 105.489Z" fill="#506600"/>
<path d="M229.257 121.619L230.802 119.669H224.969L224.38 117.332L236.837 112.617H237.995H241.307L242.263 116.377L246.936 120.766L253.744 116.946L252.769 122.006L231.188 124.139H219.727L220.885 120.766L229.257 121.619Z" fill="#104E51"/>
<path d="M95.7812 79.3141V89.1495H106.287L126.893 72.8317L137.114 61.6755L144.897 58.3225L149.815 44.0571L146.177 40.1758L138.679 53.8925L112.749 77.2211L95.7812 79.3141Z" fill="#30B7CE"/>
<path d="M136.342 95.57L155.2 90.3271L160.829 97.7037L165.828 91.7293L177.167 105.487L194.663 114.55L196.696 115.322L200.496 120.768L196.797 122.455L160.829 116.623V112.619L141.26 114.55L136.342 108.596L132.969 102.235L136.342 95.57Z" fill="#D8E877"/>
<path d="M69.3359 120.768L81.8943 122.861L79.8216 128.551L134.506 134.77V131.66L105.223 125.971L108.84 115.607L136.314 108.616L132.941 102.276L102.622 111.217V104.471L93.8228 99.0248L95.7736 89.1895L78.5211 96.6676L69.3359 105.487V120.768ZM81.8943 113.778L83.1949 106.787L89.9415 104.451L97.7244 109.124L97.9683 114.57L89.7992 120.789H85.6537L81.8943 113.778Z" fill="#C93F77"/>
<path d="M385.681 277.075L379.727 289.248L377.634 311.906L375.053 311.276L373.508 335.133L379.727 349.642H377.39L365.99 331.759L363.124 333.832L372.98 349.642H368.835L362.352 341.087L356.662 329.158L362.352 324.24L355.098 306.622L359.243 303.757L368.835 319.323L367.026 294.694L380.235 277.075H385.681Z" fill="#330E24"/>
<path d="M393.975 274.985L385.684 289.251L381.538 308.698L382.392 313.067L377.637 311.909L379.73 289.251L393.975 274.985Z" fill="#AF3C02"/>
<path d="M198.924 246.737L261.777 215.117L259.969 227.554L216.156 246.737L165.618 274.983L126.744 276.04L75.169 287.948L72.832 272.666L95.3884 271.102L96.9328 268.582L134.771 266.956L198.924 246.737Z" fill="#8AAA07"/>
<path d="M210.703 292.358L240.006 306.603L242.099 308.473L249.598 303.494L277.58 308.696L279.449 304.754L282.132 299.105L312.837 305.059L304.546 284.067L314.381 276.813L337.974 280.694L330.983 266.713H342.384L351.447 250.111L347.057 235.073L342.485 234.179L304.282 226.782L308.955 236.76L339.274 246.737L337.446 255.435L310.236 250.111L285.83 264.092L303.001 265.921L257.624 292.358L229.642 284.596L210.703 292.358Z" fill="#CC9E09"/>
<path d="M171.588 78.4579L178.904 71.8535L186.28 80.5916L196.014 77.4825L198.92 73.215L199.509 76.5274L196.786 82.3595L189.389 83.9039L187.459 88.6184L186.28 87.3991L180.062 89.1467L179.086 91.0975L174.819 86.6269L169.759 87.013L165.817 91.7275L162.891 88.1713V74.1904L163.602 69.5166L167.951 71.2642V78.844L171.588 78.4579Z" fill="#330E24"/>
<path d="M210.006 65.6396L209.233 73.89L211.184 78.0761L217.504 82.1606L220.715 84.6601V87.8708L227.827 89.7404H211.367L196.797 82.3638L199.52 76.5317L210.006 65.6396Z" fill="#104E51"/>
<path d="M132.969 102.254L136.342 95.5688L155.18 90.326L160.829 97.7025L165.828 91.7281L162.902 88.1923V74.1911L163.613 69.5376L156.379 66.6113L134.513 83.5184L132.969 102.254Z" fill="#48D5F6"/>
<path d="M220.711 84.6601L217.5 82.1606H224.308L229.266 76.1253V67.184L230.81 65.6396L231.969 68.5456V78.767L234.996 75.9424L237.13 74.7638L238.675 77.1007L232.558 82.1606L226.238 87.3018L227.823 89.7404L220.711 87.8708V84.6601Z" fill="#8D64CE"/>
<path d="M96.9336 268.582L134.771 266.956L198.925 246.736L261.798 215.117L283.034 198.921L280.697 194.897L249.341 213.308L216.157 227.553L172.365 244.928L141.274 254.255L100.469 262.79L96.9336 268.582Z" fill="#D8E877"/>
<path d="M232.55 82.1564L238.667 77.0965L237.123 74.7596L234.989 75.9382L231.961 78.7628V68.5413L234.4 68.2568L234.786 71.7114H238.382L241.004 68.3584L244.804 69.1306L238.2 82.3596L227.815 89.7362L226.23 87.2976L232.55 82.1564Z" fill="#64097E"/>
<path d="M235.272 56.4936L247.323 58.3022L245.575 53.9128L229.257 50.6614L240.129 49.117L225.254 40.1758L246.937 48.2026L248.684 46.0079L251.407 51.8401V56.6968L253.744 61.9396L244.031 63.0979L235.272 56.4936Z" fill="#F4F4F4"/>
<path d="M201.641 63.0985V68.9306L198.918 73.2183L196.013 77.4858L186.279 80.5949L178.902 71.8568L171.587 78.4612L167.949 78.8473V71.2675H174.228L182.987 55.9251H187.64L186.868 63.0985L191.156 66.2279L199.305 53.9133L212.208 49.1176L223.609 48.2031L218.162 53.9133L201.641 63.0985Z" fill="#C93F77"/>
<path d="M229.257 50.6614L245.575 53.9128L247.322 58.3021L235.272 56.4936L227.814 54.746L213.508 58.3021L201.641 68.9301V63.0979L218.162 53.9128L223.608 48.2026L224.38 46.1908L216.8 45.6218L215.825 41.9234L223.994 42.8988L225.254 40.1758L240.129 49.117L229.257 50.6614Z" fill="#E4D9F4"/>
<path d="M229.255 76.1242L224.297 82.1595H217.489L211.17 78.075L209.219 73.8889L209.991 65.6385L215.64 61.2695L216.23 66.1263H212.633L211.759 74.3766L216.23 76.1242V66.1263H220.497V63.0984L223.118 61.9401L226.817 63.0984L230.8 65.6385L229.255 67.1829V76.1242Z" fill="#230A1A"/>
<path d="M242.109 308.475L298.338 358.464L343.694 370.129L340.057 361.045L308.173 329.426L301.955 342.919L249.608 303.496L242.109 308.475Z" fill="#0B3A3A"/>
<path d="M241.01 68.3612L238.389 71.7142H234.792L234.406 68.2596L231.967 68.5441L230.809 65.6382L232.556 64.866L231.967 60.1921L228.777 59.6028L226.826 63.098L223.127 61.9397L223.615 59.6028L215.649 61.2691L210 65.6382L213.516 58.3023L227.822 54.7461L235.279 56.4937L244.038 63.098L253.751 61.9397V64.866L244.81 69.1334L241.01 68.3612Z" fill="#104E51"/>
<path d="M198.926 73.2164L201.649 68.9287L213.516 58.3008L210.001 65.6367L199.515 76.5288L198.926 73.2164Z" fill="#0B3A3A"/>
<path d="M255.059 99.2668L260.748 89.7362L275.014 83.457L286.922 87.8667L296.778 95.3652L326.853 102.234L318.298 111.439L338.761 129.586V135.255L288.223 103.412H275.278L275.014 99.2668H255.059Z" fill="#104E51"/>
<path d="M280.449 219.791L300.587 204.632L300.669 198.922L332.024 178.844L347.062 169.253L324.241 170.533L306.359 186.343L280.693 194.898L283.03 198.922L280.449 219.791Z" fill="#D4C1EE"/>
<path d="M239.236 267.484L254.009 272.401L261.772 261.509L285.852 264.09L256.854 280.692L241.552 278.62L217.188 270.065L265.226 239.258L269.027 245.049L239.236 267.484Z" fill="#CC9E09"/>
<path d="M263.594 236.761L265.24 239.261L279.424 230.157L300.415 217.456L300.598 204.634L280.46 219.793L263.594 236.761Z" fill="#FFEBAB"/>
<path d="M208.394 161.734L131.926 154.988L108.008 151.777L142.818 145.132L276.307 153.443L260.659 161.734H208.394Z" fill="#D8E877"/>
<path d="M280.182 140.865V137.105H261.263L259.76 130.359L251.408 131.395L249.863 127.006L262.036 125.441L263.722 122.007L281.483 125.441L295.22 137.105L325.112 150.985L294.184 161.734H260.654L276.301 153.443L272.664 148.505L260.999 140.865H280.182Z" fill="#FE9955"/>
<path d="M239.238 267.487L254.012 272.405L261.795 261.513L285.834 264.094L310.24 250.113L337.45 255.437L339.279 246.739L308.96 236.762L304.286 226.784L312.333 216.949L305.587 200.854L300.588 204.634L300.405 217.457L279.413 230.157L265.229 239.261L269.029 245.053L239.238 267.487Z" fill="#FFCC29"/>
<path d="M348.343 117.413H340.316L337.207 107.822L342.125 110.402V107.822L338.751 105.993H348.343L349.908 101.603L342.389 100.039L341.617 96.1572L356.654 98.23V109.366L362.08 124.139L369.863 126.212L362.08 114.548L363.645 107.822L385.673 141.778L382.035 143.058L375.309 134.767L367.79 135.255L369.091 145.131L357.426 154.723L359.235 145.131L348.343 117.413Z" fill="#C93F77"/>
<path d="M281.487 125.441L263.726 122.007H252.773L253.749 116.947L278.378 118.512V113.777L266.063 110.139V104.449L275.269 103.413H288.213L338.752 135.256V129.587L318.288 111.44L337.207 107.823L340.316 117.414H348.343L359.235 145.132L357.427 154.724L316.724 128.814L313.228 132.188L332.29 148.505L325.116 150.985L295.224 137.105L281.487 125.441Z" fill="#FFEBAB"/>
<path d="M286.922 83.4597V87.8694L275.014 83.4597L260.748 89.7389L255.059 99.2695H275.014L275.278 103.415L266.073 104.451V110.141L278.387 113.779V118.514L253.758 116.949L246.951 120.769L242.277 116.38L241.322 112.62H238.009H236.851L224.394 117.335L224.983 119.672H230.816L229.271 121.623L220.899 120.769L212.344 112.62L222.647 111.706L240.143 107.032L239.371 104.451L242.683 101.606L241.017 94.9818L247.337 97.5219L248.698 94.2096L247.337 91.3037L257.253 89.7389L253.758 85.6544L257.253 82.5453L258.229 77.4853L253.758 76.7131L258.229 74.9655L263.736 73.0147L262.699 68.9302V64.866H266.967L266.012 54.7461L271.437 61.9397L275.278 80.5945L286.922 83.4597Z" fill="#007F66"/>
<path d="M294.18 161.736L324.235 170.535L347.055 169.255L349.9 162.508L325.129 150.986L294.18 161.736Z" fill="#916D06"/>
<path d="M93.8281 99.0066L102.647 104.453V111.199L132.966 102.258L134.511 83.522L156.376 66.6149L163.611 69.5411L165.5 57.2672L179.359 38.4296L187.65 27.1311L217.604 10.6304L230.426 8.55761L221.485 6.34262L227.825 2.0752L216.161 3.88377L197.262 15.0197L174.95 33.4306L160.441 45.359L153.714 56.2308L148.004 58.3239L159.404 40.1772L144.895 58.3239L137.112 61.6768L126.89 72.8331L106.285 89.1509H95.7789L93.8281 99.0066Z" fill="#1D8B96"/>
<path d="M109.59 316.417L122.616 320.36L150.09 340.579L153.971 338.242L185.591 368.561L156.552 328.122L191.809 342.123L194.654 335.905L167.708 317.25L172.382 309.203L216.174 332.796L222.92 327.594L189.736 306.866L193.617 301.684L227.838 308.675L229.667 316.702L242.124 308.451L240.031 306.582L210.728 292.337L161.469 285.103L159.661 289.472L120.523 297.519L123.632 315.137C123.632 315.157 117.19 315.747 109.59 316.417Z" fill="#104E51"/>
<path d="M45.1165 292.439L35.5046 289.777L30.0586 279.393L42.5154 268.765H51.0706L39.9143 279.657L45.1165 292.439Z" fill="#00A887"/>
<path d="M25.1446 125.177L46.6646 124.141L57.8006 134.769L52.6187 136.333L56.3984 144.055L38.6175 140.479L25.4088 138.406L9.07066 145.661L1.55187 158.361L0.820312 143.811L25.1446 125.177Z" fill="#FFCC29"/>
<path d="M69.7133 296.502L130.372 287.175L134.781 281.221L161.463 285.143L159.675 289.512L120.536 297.538L123.645 315.157C123.645 315.157 117.204 315.746 109.604 316.417L106.291 315.421L89.9531 307.13L60.6501 304.549L46.6489 292.885L45.1045 292.458L39.9023 279.676L51.0383 268.784L52.603 290.548L69.7133 296.502Z" fill="#0B3A3A"/>
<path d="M342.385 355.599L347.059 354.054L346.266 350.681L335.395 343.69L337.711 342.39L344.722 343.69L343.686 340.561L326.839 337.452L324.238 330.726L329.949 328.897L348.339 335.135L349.904 328.897L329.684 295.469L346.266 290.287L351.448 295.204L359.495 292.36L357.931 266.45L367.522 271.368L367.014 294.696L368.823 319.326L359.231 303.76L355.086 306.625L362.34 324.243L356.65 329.161L362.34 341.089L359.495 346.271L355.086 353.79L372.46 365.962L347.059 360.537L342.385 355.599Z" fill="#093535"/>
<path d="M147.988 58.3214L153.698 56.2283L160.425 45.3566L174.934 33.4281L197.246 15.0173L216.145 3.88132L227.809 2.07275V0L184.017 1.01605L157.58 12.4365L155.162 14.5295L157.824 17.3542L166.135 12.9445V16.582L148.252 32.3917H151.097L172.597 14.2451L174.162 17.1103L156.035 33.6923L159.388 35.2367L186.09 13.4729L187.635 18.1264L159.388 40.1747L147.988 58.3214Z" fill="#36D8B9"/>
<path d="M146.176 40.1745L149.813 44.0559L144.896 58.3212L159.405 40.1745L187.651 18.1262L186.107 13.4727L159.405 35.2365L156.052 33.6921L174.178 17.1102L172.614 14.2449L151.114 32.3916H148.269L166.152 16.5818V12.9443L157.84 17.354L155.178 14.5294L138.678 29.0183V30.8269L141.279 35.2365L134.512 50.5383L138.678 53.8912L146.176 40.1745Z" fill="#104E51"/>
<path d="M265.25 41.2335L261.917 40.1768L251.411 29.0206L248.505 30.8292L256.471 41.9245L253.748 42.6967L246.351 33.9586L239.95 34.1415L233.915 24.3671L227.819 30.8292L231.964 35.6249L225.258 34.1415L222.637 30.8292V16.6451L236.252 14.8975L246.941 24.3671L256.471 14.8975L257.833 24.3671L268.136 37.0677L265.25 41.2335Z" fill="#8D64CE"/>
<path d="M299.62 57.2661L286.92 49.1174L275.723 44.5654L294.194 48.2029L313.357 46.6585L304.355 58.587L299.62 57.2661Z" fill="#F75F0B"/>
<path d="M57.5285 110.139L71.0216 93.6988L92.5213 84.2292L95.7727 79.3115V89.1469L78.5404 96.6657L69.335 105.485V120.766L81.8934 122.839L79.8207 128.549L57.7926 134.768L46.6567 124.14L25.1367 125.176L66.0836 87.8667L57.5285 110.139Z" fill="#916D06"/>
<path d="M69.335 80.0834L66.0836 87.8664L25.1367 125.176L53.7894 92.5199L73.0944 53.1174L76.4677 44.5623L71.0826 40.7419L72.3222 40.1729L82.056 39.1162L86.8314 42.4895L77.5041 54.9463L74.3949 64.0095L107.559 48.9719L115.606 39.4413L125.441 40.1729L117.923 50.8008L69.335 80.0834Z" fill="#8D62CF"/>
<path d="M333.333 49.2368V51.7973L326.709 57.2636L341.36 68.9279L304.355 58.5845L313.358 46.6561L323.031 43.8721L320.633 54.7438L333.333 49.2368Z" fill="#1D8B96"/>
<path d="M74.3945 64.0104L77.5036 54.9472L86.831 42.4904L82.0556 39.1171L94.0856 37.8369L115.606 39.4423L107.558 48.9728L74.3945 64.0104Z" fill="#D4C1EE"/>
<path d="M73.0939 53.1177L53.7888 92.5202L25.1362 125.176L0.811838 143.811L0.527344 138.1L15.0366 121.803V112.618L24.872 111.703L30.0538 103.412L20.9907 104.449L31.6186 87.8667H42.7545L63.2381 55.4546L58.991 46.493L71.0821 40.7422L76.4671 44.5625L73.0939 53.1177Z" fill="#8AAA07"/>
<path d="M42.7555 87.8678H31.6195L20.9916 104.45L30.0548 103.413L24.873 111.704L15.0376 112.619V121.804L0.528347 138.101L0 127.778L5.71021 122.332L13.737 90.7128L27.2099 68.9286L53.7898 48.9733L58.992 46.4941L63.2391 55.4557L42.7555 87.8678Z" fill="#D8E877"/>
<path d="M363.379 71.0038L365.452 60.132L398.108 31.3574L378.925 61.9406L382.298 68.931L371.548 72.2434L363.379 71.0038Z" fill="#104E51"/>
<path d="M124.144 201.119L130.119 208.394L124.144 216.929H130.627L129.347 223.675L118.719 219.794V206.951L108.091 208.394L103.945 192.056H107.562L124.144 201.119Z" fill="#64097E"/>
<path d="M101.605 164.316L153.708 160.942L161.694 166.429L119.223 165.088L111.44 168.603L103.942 192.054L96.9922 165.25L101.605 164.316Z" fill="#043A3F"/>
<path d="M48.2046 153.687L63.7705 154.723L92.5248 166.123L96.9954 165.249L103.945 192.053L46.6602 169.496L48.2046 153.687Z" fill="#3D112B"/>
<path d="M111.444 238.183L113.781 243.893L88.1362 251.92L54.1797 264.885L57.5327 255.822L60.1338 243.812L84.4987 234.302L111.444 238.183Z" fill="#FFEBAB"/>
<path d="M25.3999 138.408L38.6085 140.481L56.3894 144.057L57.7916 146.963H43.7904L30.0534 157.063V148.244L19.9538 146.963L9.5901 157.591L11.8661 171.592L7.51735 167.427L1.54297 158.363L9.06175 145.663L25.3999 138.408Z" fill="#68007F"/>
<path d="M175.976 232.229H184.287L191.013 225.747L194.386 227.556L200.869 218.492L205.278 222.638L212.269 212.782L216.15 216.684L220.824 208.393L225.742 210.201L227.571 203.597L231.188 205.792L248.034 193.863L249.07 190.246L252.708 194.656L265.144 192.319L291.074 176.753L284.063 187.381L249.07 210.201L216.15 227.556L172.358 244.93L159.922 236.375H171.322L175.976 232.229Z" fill="#D4C1EE"/>
<path d="M201.646 178.827L176.773 176.754L161.694 166.431L230.156 168.605L246.738 169.113L225.503 180.391L231.192 192.056L234.037 196.973L231.192 205.793L227.575 203.598L225.746 210.202L220.829 208.394L216.155 216.685L212.274 212.783L205.283 222.639L200.873 218.493L194.391 227.556L191.018 225.748L184.291 232.23H175.98L171.327 236.376H159.927L156.289 233.002L207.092 203.598L201.646 178.827Z" fill="#64097E"/>
<path d="M118.722 241.82L113.784 243.893L111.447 238.183L84.5017 234.302L60.1367 243.812L60.4009 242.593L65.5828 233.529L78.0193 226.783L85.2129 225.889L116.121 232.493L118.722 241.82Z" fill="#FFCC29"/>
<path d="M19.9536 146.963L30.0531 148.243V157.062L19.9536 170.535L58.8278 201.383L78.783 210.71L97.9661 209.43L103.941 192.055L108.086 208.394L118.714 206.951V219.794L129.342 223.675L141.25 226.784H116.113L108.858 221.094L73.8653 215.648L52.3453 205.792L30.5815 189.454L11.8658 171.592L9.58984 157.591L19.9536 146.963Z" fill="#8D62CF"/>
<path d="M51.0742 268.767L95.3945 252.713L132.785 243.243L116.122 226.783L110.412 228.084L88.404 225.503L85.2136 225.889L116.122 232.493L118.723 241.821L113.785 243.894L88.1398 251.941L54.1833 264.885L51.0742 268.767Z" fill="#F75F0B"/>
<path d="M216.152 227.553L249.337 213.308L280.692 194.897L306.357 186.342L324.24 170.532H292.112L279.92 181.424L266.955 188.679L249.072 190.244L252.71 194.633L265.146 192.296L291.076 176.75L284.065 187.399L249.072 210.199L216.152 227.553Z" fill="#8D64CE"/>
<path d="M96.9944 165.249L92.5238 166.122L63.7695 154.722H68.1589V149.805L97.9698 153.686L96.6693 164.05L96.9944 165.249Z" fill="#5B1A3E"/>
<path d="M292.122 170.532L279.929 181.424L266.965 188.679L249.082 190.244L255.829 182.989L292.122 170.532Z" fill="#00A887"/>
<path d="M255.82 182.993L249.074 190.248L248.038 193.865L231.191 205.793L234.036 196.974L231.191 192.056L243.384 184.273L255.82 182.993Z" fill="#104E51"/>
<path d="M255.827 182.991L243.39 184.271L231.198 192.054L225.508 180.389L246.743 169.111L292.12 170.534L255.827 182.991Z" fill="#043A3F"/>
<path d="M108.002 151.78L97.9636 153.69L68.1526 149.808V154.726H63.7633L57.7889 146.964L56.3867 144.058L68.1526 146.435L108.002 151.78Z" fill="#892C56"/>
<path d="M80.0909 206.949L97.9735 209.428L78.7904 210.708L58.8351 201.381L19.9609 170.533L30.0605 157.061V166.388L80.0909 206.949Z" fill="#892C56"/>
<path d="M156.288 233L159.925 236.374L132.777 243.242L116.113 226.782H141.25L156.288 233Z" fill="#C93F77"/>
<path d="M132.773 243.241L136.33 246.736L172.359 244.927L159.922 236.372L132.773 243.241Z" fill="#F9ACCF"/>
<path d="M85.6539 120.766L81.8945 113.776L83.1951 106.785L89.9416 104.448L97.7043 109.102L97.9684 114.548L89.7994 120.766H85.6539Z" fill="#3D112B"/>
<path d="M228.767 59.5996L231.956 60.1888L232.546 64.8615L230.798 65.6335L226.816 63.094L228.767 59.5996Z" fill="#E4D9F4"/>
<path d="M220.501 66.1221H216.234L215.645 61.2658L223.61 59.5996L223.122 61.9363L220.501 63.0945V66.1221Z" fill="#D4C1EE"/>
<path d="M211.758 74.3726L212.632 66.123H216.228V76.1201L211.758 74.3726Z" fill="#8D64CE"/>
<path d="M385.681 277.058L400.007 252.998V261.553L393.972 274.985L379.727 289.251L385.681 277.058Z" fill="#330E24"/>
<path d="M378.412 268.766L397.067 242.329L397.859 214.346L399.993 206.665V253.017L385.666 277.078H380.22L367.012 294.696L378.412 268.766Z" fill="#104E51"/>
<path d="M282.135 299.106L312.841 305.06L304.55 284.068L314.385 276.814L337.978 280.695L330.987 266.714H342.387L351.451 250.112L347.061 235.074L342.489 234.18L355.088 223.938L364.415 240.277L373.763 235.074L380.754 201.91H391.646L393.962 184.292L399.998 185.613V206.686L397.864 214.347L397.092 242.329L378.417 268.767L366.996 294.696L367.525 271.368L357.933 266.45L359.498 292.359L351.451 295.204L346.269 290.287L329.687 295.469L349.906 328.917L348.342 335.135L320.359 316.481L303.005 322.699L279.453 304.755L282.135 299.106Z" fill="#00A887"/>
<path d="M377.07 173.642L389.547 169.253L399.992 171.935V185.611L393.957 184.291L391.641 201.909H380.748L383.329 190.245L377.07 173.642Z" fill="#8E360A"/>
<path d="M381.795 153.442L400.002 156.531V171.935L389.557 169.252L377.101 173.641L376.613 172.361H359.238L381.795 153.442Z" fill="#F75F0B"/>
<path d="M332.284 148.505L313.223 132.187L316.718 128.813L357.421 154.743L369.085 145.131L367.785 135.255L375.303 134.768L382.03 143.079L385.667 141.758L393.958 134.768L399.994 142.124V156.531L381.766 153.422L359.23 172.361H376.604L377.071 173.642L336.673 187.907L332.02 178.844L347.057 169.252L349.902 162.506L325.131 150.984L332.284 148.505Z" fill="#FFCC29"/>
<path d="M363.376 71.0034V75.1692L389.549 87.8699L399.994 85.8175V131.235L393.959 134.771L362.603 84.6592L341.348 68.9307L363.376 71.0034Z" fill="#64097E"/>
<path d="M371.548 72.2411L382.298 68.9288L399.997 54.9072V85.8155L389.552 87.868L363.379 75.1673V71.0015L371.548 72.2411Z" fill="#FFCC29"/>
<path d="M333.326 49.238L320.625 54.745L323.023 43.8732L370.391 30.3191L371.55 34.2004L351.452 44.5641L343.689 52.3471L351.98 58.8295L363.645 44.5641L399.999 24.873V29.9939L398.109 31.3555L365.453 60.1301L363.381 71.0018L341.352 68.9291L326.701 57.2648L333.326 51.7984V49.238Z" fill="#36D8B9"/>
<path d="M356.183 383.071L345.494 379.352L336.939 377.198L335.903 381.527H317.979L318.853 383.071H253.785L266.588 380.978L225.742 359.621V350.415L279.146 380.978L286.401 375.308L273.172 363.4L283.291 357.446L310.237 375.308H317.756L342.913 369.883L356.793 383.071H356.183Z" fill="#FFEBAB"/>
<path d="M191.799 342.123L194.664 335.905L167.698 317.25L172.372 309.203L216.164 332.796L222.911 327.614L189.726 306.866L193.628 301.685L227.828 308.695L229.657 316.722L268.531 356.633L284.077 358.197L273.978 363.887L287.186 375.308L279.932 380.733L226.548 351.451V360.27L265.687 380.733L251.421 383.07H219.456L201.919 367.789L199.318 377.116L189.483 363.379L185.581 368.561L156.562 328.122L191.799 342.123Z" fill="#007F66"/>
</svg>
